<?xml version="1.0" encoding="UTF-8"?> <svg xmlns="http://www.w3.org/2000/svg" width="44" height="48" viewBox="0 0 44 48"> <g fill="none" fill-rule="evenodd"> <path fill="#00B482" d="M19.505.652a5.099 5.099 0 0 1 4.99 0l16.971 9.547A4.936 4.936 0 0 1 44 14.497v19.006a4.936 4.936 0 0 1-2.534 4.298l-16.971 9.547a5.099 5.099 0 0 1-4.99 0L2.534 37.801A4.936 4.936 0 0 1 0 33.503V14.497c0-1.776.967-3.417 2.534-4.298L19.505.652z"></path> <path fill="#FFF" fill-rule="nonzero" d="M22.153 8.043c.96.079 1.072.233 1.503.509l8.995 6.109c1.115.803 1.08 1.192 1.224 1.718.342 1.244 0 2.484-1.225 3.365L18.85 29.113l3.144 2.135 7.332-4.98c2.525-1.615 6.75 2.616 3.326 5.083l-8.995 6.11c-.417.267-.504.285-.718.357-.868.294-1.628.27-2.608-.357l-8.995-6.11A3.234 3.234 0 0 1 10 28.81V17.202a3.235 3.235 0 0 1 1.335-2.541l8.995-6.11c1.163-.745 1.202-.525 1.823-.508zm-6.157 10.794v4.871l9.585-6.506-3.588-2.438-5.997 4.073z"></path> </g> </svg> 